<?xml version="1.0" ?><!DOCTYPE svg  PUBLIC '-//W3C//DTD SVG 1.1//EN'  'http://www.w3.org/Graphics/SVG/1.1/DTD/svg11.dtd'><svg enable-background="new 0 0 512 512" height="512px" id="Layer_1" version="1.1" viewBox="0 0 512 512" width="512px" xml:space="preserve" xmlns="http://www.w3.org/2000/svg" xmlns:xlink="http://www.w3.org/1999/xlink"><g><path d="M510.689,478.854c0,17.562-14.275,31.837-31.837,31.837H33.146c-17.561,0-31.836-14.275-31.836-31.837   V33.146c0-17.56,14.275-31.836,31.836-31.836h445.706c17.562,0,31.837,14.276,31.837,31.836V478.854z" fill="#EBF7F9"/></g><g><path d="M110.664,130.22h290.869c15.32,0,27.82,12.5,27.82,27.817v195.93c0,15.324-12.5,27.813-27.82,27.813   H110.664c-15.522,0-28.018-12.488-28.018-27.813v-195.93C82.646,142.72,95.142,130.22,110.664,130.22L110.664,130.22z" fill="#ECEADF"/><path d="M256.002,289.861l136.461-96.348v188.266h9.07c15.32,0,27.82-12.488,27.82-27.813V167.511v-9.474   c0-12.902-8.875-23.785-20.974-27.014L256.002,238.664L103.81,131.023c-12.099,3.022-21.162,14.11-21.162,27.014v9.271v186.659   c0,15.324,12.494,27.813,28.018,27.813h8.867V193.515L256.002,289.861z" fill="#E63734"/><polygon fill="#AEAEA5" points="392.463,193.515 256.002,289.861 392.256,381.779 392.463,381.779  "/><path d="M119.531,381.779l136.471-91.918C201.371,321.916,170.127,342.271,119.531,381.779L119.531,381.779z" fill="#AEAEA5"/><path d="M392.463,193.515V381.78h9.07c15.32,0,27.82-12.488,27.82-27.813V167.511L392.463,193.515z" fill="#A62323"/></g></svg>